<svg xmlns="http://www.w3.org/2000/svg" xmlns:xlink="http://www.w3.org/1999/xlink" width="40" zoomAndPan="magnify" viewBox="0 0 30 30.000001" height="40" preserveAspectRatio="xMidYMid meet" version="1.0"><defs><clipPath id="9e34706b09"><path d="M 0.484375 0 L 29.515625 0 L 29.515625 29.03125 L 0.484375 29.03125 Z M 0.484375 0 " clip-rule="nonzero"/></clipPath><clipPath id="1fd0b7b1bc"><path d="M 2.808594 2.324219 L 27.484375 2.324219 L 27.484375 27.003906 L 2.808594 27.003906 Z M 2.808594 2.324219 " clip-rule="nonzero"/></clipPath></defs><g clip-path="url(#9e34706b09)"><path fill="#ffffff" d="M 0.484375 0 L 29.515625 0 L 29.515625 36.289062 L 0.484375 36.289062 Z M 0.484375 0 " fill-opacity="1" fill-rule="nonzero"/><path fill="#ffffff" d="M 0.484375 0 L 29.515625 0 L 29.515625 29.03125 L 0.484375 29.03125 Z M 0.484375 0 " fill-opacity="1" fill-rule="nonzero"/></g><g clip-path="url(#1fd0b7b1bc)"><path fill="#000000" d="M 22.433594 2.324219 L 7.859375 2.324219 C 5.074219 2.324219 2.808594 4.589844 2.808594 7.378906 L 2.808594 21.949219 C 2.808594 24.734375 5.074219 27.003906 7.859375 27.003906 L 22.433594 27.003906 C 25.21875 27.003906 27.484375 24.734375 27.484375 21.949219 L 27.484375 7.378906 C 27.484375 4.589844 25.21875 2.324219 22.433594 2.324219 Z M 26.035156 21.949219 C 26.035156 23.933594 24.417969 25.550781 22.433594 25.550781 L 7.859375 25.550781 C 5.875 25.550781 4.261719 23.933594 4.261719 21.949219 L 4.261719 7.378906 C 4.261719 5.390625 5.875 3.777344 7.859375 3.777344 L 22.433594 3.777344 C 24.417969 3.777344 26.035156 5.390625 26.035156 7.378906 Z M 26.035156 21.949219 " fill-opacity="1" fill-rule="nonzero"/></g><path fill="#000000" d="M 10.308594 12.128906 L 7.40625 12.128906 C 7.003906 12.128906 6.679688 12.453125 6.679688 12.855469 L 6.679688 22.316406 C 6.679688 22.714844 7.003906 23.039062 7.40625 23.039062 L 10.308594 23.039062 C 10.710938 23.039062 11.035156 22.714844 11.035156 22.316406 L 11.035156 12.855469 C 11.035156 12.453125 10.710938 12.128906 10.308594 12.128906 Z M 9.582031 21.589844 L 8.132812 21.589844 L 8.132812 13.582031 L 9.582031 13.582031 Z M 9.582031 21.589844 " fill-opacity="1" fill-rule="nonzero"/><path fill="#000000" d="M 18.050781 13.289062 C 17.640625 13.289062 17.234375 13.335938 16.839844 13.421875 L 16.839844 12.855469 C 16.839844 12.453125 16.515625 12.128906 16.113281 12.128906 L 13.210938 12.128906 C 12.8125 12.128906 12.484375 12.453125 12.484375 12.855469 L 12.484375 22.316406 C 12.484375 22.714844 12.8125 23.039062 13.210938 23.039062 L 16.113281 23.039062 C 16.515625 23.039062 16.839844 22.714844 16.839844 22.316406 L 16.839844 18.855469 C 16.839844 18.1875 17.382812 17.644531 18.050781 17.644531 C 18.71875 17.644531 19.261719 18.1875 19.261719 18.855469 L 19.261719 22.316406 C 19.261719 22.714844 19.585938 23.039062 19.984375 23.039062 L 22.890625 23.039062 C 23.289062 23.039062 23.613281 22.714844 23.613281 22.316406 L 23.613281 18.855469 C 23.613281 15.785156 21.117188 13.289062 18.050781 13.289062 Z M 22.164062 21.589844 L 20.710938 21.589844 L 20.710938 18.855469 C 20.710938 17.386719 19.519531 16.195312 18.050781 16.195312 C 16.582031 16.195312 15.390625 17.386719 15.390625 18.855469 L 15.390625 21.589844 L 13.9375 21.589844 L 13.9375 13.582031 L 15.390625 13.582031 L 15.390625 14.421875 C 15.390625 14.945312 15.925781 15.296875 16.40625 15.085938 C 16.925781 14.859375 17.480469 14.742188 18.050781 14.742188 C 20.320312 14.742188 22.164062 16.585938 22.164062 18.855469 Z M 22.164062 21.589844 " fill-opacity="1" fill-rule="nonzero"/><path fill="#000000" d="M 8.855469 6.285156 C 7.65625 6.285156 6.679688 7.261719 6.679688 8.464844 C 6.679688 9.664062 7.65625 10.640625 8.855469 10.640625 C 10.058594 10.640625 11.035156 9.664062 11.035156 8.464844 C 11.035156 7.261719 10.058594 6.285156 8.855469 6.285156 Z M 8.855469 9.191406 C 8.457031 9.191406 8.132812 8.863281 8.132812 8.464844 C 8.132812 8.0625 8.457031 7.738281 8.855469 7.738281 C 9.257812 7.738281 9.582031 8.0625 9.582031 8.464844 C 9.582031 8.863281 9.257812 9.191406 8.855469 9.191406 Z M 8.855469 9.191406 " fill-opacity="1" fill-rule="nonzero"/></svg>