<svg xmlns="http://www.w3.org/2000/svg" xmlns:xlink="http://www.w3.org/1999/xlink" width="40" zoomAndPan="magnify" viewBox="0 0 30 30.000001" height="40" preserveAspectRatio="xMidYMid meet" version="1.0"><defs><clipPath id="5c55fe248e"><path d="M 0.484375 0 L 29.515625 0 L 29.515625 29.03125 L 0.484375 29.03125 Z M 0.484375 0 " clip-rule="nonzero"/></clipPath><clipPath id="3ff335de4c"><path d="M 3.191406 2.664062 L 27.128906 2.664062 L 27.128906 26.617188 L 3.191406 26.617188 Z M 3.191406 2.664062 " clip-rule="nonzero"/></clipPath></defs><g clip-path="url(#5c55fe248e)"><path fill="#ffffff" d="M 0.484375 0 L 29.515625 0 L 29.515625 36.289062 L 0.484375 36.289062 Z M 0.484375 0 " fill-opacity="1" fill-rule="nonzero"/><path fill="#ffffff" d="M 0.484375 0 L 29.515625 0 L 29.515625 29.03125 L 0.484375 29.03125 Z M 0.484375 0 " fill-opacity="1" fill-rule="nonzero"/></g><g clip-path="url(#3ff335de4c)"><path fill="#141414" d="M 27.109375 14.644531 C 27.109375 16.839844 27.121094 19.03125 27.109375 21.230469 C 27.09375 24.3125 24.957031 26.535156 21.851562 26.570312 C 17.367188 26.617188 12.886719 26.617188 8.402344 26.5625 C 5.375 26.53125 3.210938 24.28125 3.199219 21.246094 C 3.183594 16.859375 3.183594 12.46875 3.199219 8.082031 C 3.203125 4.917969 5.421875 2.699219 8.589844 2.6875 C 12.964844 2.664062 17.339844 2.664062 21.710938 2.6875 C 24.945312 2.703125 27.097656 4.902344 27.109375 8.140625 C 27.109375 10.3125 27.109375 12.476562 27.109375 14.644531 Z M 4.648438 14.632812 C 4.648438 16.796875 4.640625 18.960938 4.648438 21.132812 C 4.652344 23.519531 6.285156 25.140625 8.6875 25.140625 C 13.003906 25.148438 17.320312 25.148438 21.636719 25.140625 C 23.96875 25.140625 25.65625 23.59375 25.679688 21.292969 C 25.726562 16.851562 25.71875 12.414062 25.671875 7.96875 C 25.652344 5.695312 23.972656 4.132812 21.710938 4.125 C 17.339844 4.121094 12.972656 4.121094 8.597656 4.125 C 6.308594 4.125 4.660156 5.765625 4.648438 8.050781 C 4.636719 10.246094 4.648438 12.441406 4.648438 14.632812 Z M 4.648438 14.632812 " fill-opacity="1" fill-rule="nonzero"/></g><path fill="#141414" d="M 19.214844 15.628906 C 18.941406 16.839844 18.636719 17.996094 17.566406 18.699219 C 16.1875 19.609375 14.722656 19.636719 13.28125 18.878906 C 12.277344 18.351562 11.8125 17.457031 11.835938 16.300781 C 11.859375 15.128906 12.449219 14.347656 13.433594 13.816406 C 14.550781 13.210938 15.765625 13.28125 16.976562 13.316406 C 17.191406 13.320312 17.40625 13.441406 17.640625 13.292969 C 17.480469 12.441406 17.105469 11.765625 16.199219 11.492188 C 15.71875 11.351562 15.203125 11.28125 14.710938 11.390625 C 14.46875 11.441406 14.234375 11.539062 14.03125 11.671875 C 13.777344 11.828125 13.570312 12.15625 13.261719 12.207031 C 12.941406 12.265625 12.671875 12.007812 12.460938 11.808594 C 12.273438 11.628906 11.929688 11.40625 12.175781 11.132812 C 12.375 10.917969 12.722656 10.699219 12.964844 10.515625 C 13.332031 10.242188 13.75 10.035156 14.191406 9.917969 C 15.066406 9.675781 15.988281 9.785156 16.839844 10.058594 C 18.304688 10.535156 18.941406 11.726562 19.160156 13.171875 C 19.210938 13.519531 19.171875 13.851562 19.605469 14.046875 C 22.921875 15.523438 23.15625 20.277344 19.640625 22.542969 C 14.871094 25.621094 8.535156 22.847656 7.589844 17.234375 C 7.195312 14.878906 7.234375 12.539062 8.078125 10.265625 C 9.484375 6.46875 12.855469 5.28125 16.335938 5.628906 C 18.710938 5.863281 20.824219 7.015625 22.03125 9.113281 C 22.332031 9.621094 22.523438 10.179688 22.792969 10.703125 C 23.109375 11.328125 22.433594 11.429688 22 11.585938 C 21.59375 11.726562 21.378906 11.464844 21.253906 11.09375 C 20.210938 8.027344 17.585938 6.878906 14.613281 7.167969 C 11.109375 7.511719 9.210938 9.613281 8.941406 13.269531 C 8.824219 14.828125 8.847656 16.394531 9.3125 17.910156 C 10.292969 21.097656 12.722656 22.296875 15.914062 22.121094 C 17.609375 22.023438 19.074219 21.425781 20.082031 19.992188 C 21.121094 18.527344 20.773438 16.691406 19.214844 15.628906 Z M 16.078125 14.824219 C 15.449219 14.824219 14.820312 14.875 14.242188 15.148438 C 13.6875 15.417969 13.3125 15.816406 13.355469 16.484375 C 13.394531 17.15625 13.835938 17.519531 14.40625 17.695312 C 15.15625 17.921875 15.917969 17.917969 16.617188 17.472656 C 17.210938 17.089844 17.941406 15.644531 17.636719 15.203125 C 17.296875 14.695312 16.628906 14.867188 16.078125 14.824219 Z M 16.078125 14.824219 " fill-opacity="1" fill-rule="nonzero"/></svg>