<svg xmlns="http://www.w3.org/2000/svg" xmlns:xlink="http://www.w3.org/1999/xlink" width="40" zoomAndPan="magnify" viewBox="0 0 30 30.000001" height="40" preserveAspectRatio="xMidYMid meet" version="1.0"><defs><clipPath id="9b14d0987c"><path d="M 0.484375 0 L 29.515625 0 L 29.515625 29.03125 L 0.484375 29.03125 Z M 0.484375 0 " clip-rule="nonzero"/></clipPath><clipPath id="4477e5e9f3"><path d="M 2.855469 3 L 26.800781 3 L 26.800781 26.21875 L 2.855469 26.21875 Z M 2.855469 3 " clip-rule="nonzero"/></clipPath></defs><g clip-path="url(#9b14d0987c)"><path fill="#ffffff" d="M 0.484375 0 L 29.515625 0 L 29.515625 36.289062 L 0.484375 36.289062 Z M 0.484375 0 " fill-opacity="1" fill-rule="nonzero"/><path fill="#ffffff" d="M 0.484375 0 L 29.515625 0 L 29.515625 29.03125 L 0.484375 29.03125 Z M 0.484375 0 " fill-opacity="1" fill-rule="nonzero"/></g><g clip-path="url(#4477e5e9f3)"><path fill="#000000" d="M 3.011719 25.949219 L 12.277344 15.90625 L 2.851562 3.101562 C 5.226562 3.101562 7.332031 3.054688 9.429688 3.140625 C 9.804688 3.15625 10.222656 3.675781 10.503906 4.050781 C 12.378906 6.53125 14.21875 9.039062 16.171875 11.675781 C 18.5625 9.097656 20.878906 6.597656 23.195312 4.097656 C 24.222656 2.992188 24.222656 2.992188 25.949219 3.242188 L 17.082031 12.917969 L 26.800781 26.09375 C 24.390625 26.09375 22.253906 26.125 20.121094 26.058594 C 19.820312 26.046875 19.484375 25.601562 19.25 25.289062 C 17.25 22.613281 15.273438 19.925781 13.183594 17.101562 C 10.625 19.863281 8.152344 22.539062 5.675781 25.210938 C 4.742188 26.222656 4.738281 26.21875 3.011719 25.949219 Z M 6.046875 4.773438 C 6.34375 5.226562 6.566406 5.605469 6.828125 5.957031 C 11.023438 11.640625 15.222656 17.324219 19.425781 23.003906 C 20.75 24.792969 21.367188 24.996094 23.71875 24.375 C 23.476562 24.019531 23.257812 23.679688 23.015625 23.355469 C 18.84375 17.710938 14.582031 12.132812 10.550781 6.386719 C 9.3125 4.625 7.957031 4.449219 6.046875 4.773438 Z M 6.046875 4.773438 " fill-opacity="1" fill-rule="nonzero"/></g></svg>